<mxfile host="app.diagrams.net" agent="Mozilla/5.0 (Windows NT 10.0; Win64; x64) AppleWebKit/537.36 (KHTML, like Gecko) Chrome/131.0.0.0 Safari/537.36" version="26.0.7">
  <diagram id="C5RBs43oDa-KdzZeNtuy" name="Page-1">
    <mxGraphModel dx="5665" dy="2025" grid="1" gridSize="10" guides="1" tooltips="1" connect="1" arrows="1" fold="1" page="1" pageScale="1" pageWidth="827" pageHeight="1169" math="0" shadow="0">
      <root>
        <mxCell id="WIyWlLk6GJQsqaUBKTNV-0" />
        <mxCell id="WIyWlLk6GJQsqaUBKTNV-1" parent="WIyWlLk6GJQsqaUBKTNV-0" />
        <mxCell id="I2DZY9Y-hA4aJZPYzhrL-0" value="提出问题" style="whiteSpace=wrap;strokeWidth=2;" vertex="1" parent="WIyWlLk6GJQsqaUBKTNV-1">
          <mxGeometry x="3981" y="470" width="124" height="54" as="geometry" />
        </mxCell>
        <mxCell id="I2DZY9Y-hA4aJZPYzhrL-1" value="研究基础" style="whiteSpace=wrap;strokeWidth=2;" vertex="1" parent="WIyWlLk6GJQsqaUBKTNV-1">
          <mxGeometry x="1242" y="574" width="124" height="54" as="geometry" />
        </mxCell>
        <mxCell id="I2DZY9Y-hA4aJZPYzhrL-2" value="研究方法" style="whiteSpace=wrap;strokeWidth=2;" vertex="1" parent="WIyWlLk6GJQsqaUBKTNV-1">
          <mxGeometry x="3151" y="574" width="124" height="54" as="geometry" />
        </mxCell>
        <mxCell id="I2DZY9Y-hA4aJZPYzhrL-3" value="下视光学制导景象点云配准及准确度分析" style="whiteSpace=wrap;strokeWidth=2;" vertex="1" parent="WIyWlLk6GJQsqaUBKTNV-1">
          <mxGeometry x="249" y="678" width="260" height="78" as="geometry" />
        </mxCell>
        <mxCell id="I2DZY9Y-hA4aJZPYzhrL-4" value="数据采集与预处理" style="whiteSpace=wrap;strokeWidth=2;" vertex="1" parent="WIyWlLk6GJQsqaUBKTNV-1">
          <mxGeometry x="150" y="818" width="188" height="54" as="geometry" />
        </mxCell>
        <mxCell id="I2DZY9Y-hA4aJZPYzhrL-5" value="特征配准方法研究" style="whiteSpace=wrap;strokeWidth=2;" vertex="1" parent="WIyWlLk6GJQsqaUBKTNV-1">
          <mxGeometry x="388" y="818" width="188" height="54" as="geometry" />
        </mxCell>
        <mxCell id="I2DZY9Y-hA4aJZPYzhrL-6" value="准确度分析与评估" style="whiteSpace=wrap;strokeWidth=2;" vertex="1" parent="WIyWlLk6GJQsqaUBKTNV-1">
          <mxGeometry x="626" y="818" width="188" height="54" as="geometry" />
        </mxCell>
        <mxCell id="I2DZY9Y-hA4aJZPYzhrL-7" value="下视光学制导景象隐式神经表征及渲染效果分析" style="whiteSpace=wrap;strokeWidth=2;" vertex="1" parent="WIyWlLk6GJQsqaUBKTNV-1">
          <mxGeometry x="1107" y="678" width="260" height="78" as="geometry" />
        </mxCell>
        <mxCell id="I2DZY9Y-hA4aJZPYzhrL-8" value="大尺度户外场景的多分辨率NeRF表征方法" style="whiteSpace=wrap;strokeWidth=2;" vertex="1" parent="WIyWlLk6GJQsqaUBKTNV-1">
          <mxGeometry x="864" y="806" width="260" height="78" as="geometry" />
        </mxCell>
        <mxCell id="I2DZY9Y-hA4aJZPYzhrL-9" value="NeRF隐式表征快速匹配方法研究" style="whiteSpace=wrap;strokeWidth=2;" vertex="1" parent="WIyWlLk6GJQsqaUBKTNV-1">
          <mxGeometry x="1174" y="806" width="260" height="78" as="geometry" />
        </mxCell>
        <mxCell id="I2DZY9Y-hA4aJZPYzhrL-10" value="渲染效果分析与评价指标体系" style="whiteSpace=wrap;strokeWidth=2;" vertex="1" parent="WIyWlLk6GJQsqaUBKTNV-1">
          <mxGeometry x="1484" y="806" width="260" height="78" as="geometry" />
        </mxCell>
        <mxCell id="I2DZY9Y-hA4aJZPYzhrL-11" value="多用户多视角交互式投影" style="whiteSpace=wrap;strokeWidth=2;" vertex="1" parent="WIyWlLk6GJQsqaUBKTNV-1">
          <mxGeometry x="1981" y="690" width="236" height="54" as="geometry" />
        </mxCell>
        <mxCell id="I2DZY9Y-hA4aJZPYzhrL-12" value="多用户视角追踪及分析" style="whiteSpace=wrap;strokeWidth=2;" vertex="1" parent="WIyWlLk6GJQsqaUBKTNV-1">
          <mxGeometry x="1794" y="818" width="220" height="54" as="geometry" />
        </mxCell>
        <mxCell id="I2DZY9Y-hA4aJZPYzhrL-13" value="多投影机校正与图像补偿" style="whiteSpace=wrap;strokeWidth=2;" vertex="1" parent="WIyWlLk6GJQsqaUBKTNV-1">
          <mxGeometry x="2064" y="818" width="236" height="54" as="geometry" />
        </mxCell>
        <mxCell id="I2DZY9Y-hA4aJZPYzhrL-14" value="多视角内容生成与渲染" style="whiteSpace=wrap;strokeWidth=2;" vertex="1" parent="WIyWlLk6GJQsqaUBKTNV-1">
          <mxGeometry x="2350" y="818" width="220" height="54" as="geometry" />
        </mxCell>
        <mxCell id="I2DZY9Y-hA4aJZPYzhrL-15" value="设计策略" style="whiteSpace=wrap;strokeWidth=2;" vertex="1" parent="WIyWlLk6GJQsqaUBKTNV-1">
          <mxGeometry x="3151" y="690" width="124" height="54" as="geometry" />
        </mxCell>
        <mxCell id="I2DZY9Y-hA4aJZPYzhrL-16" value="下视光学制导景象三维点云配准" style="whiteSpace=wrap;strokeWidth=2;" vertex="1" parent="WIyWlLk6GJQsqaUBKTNV-1">
          <mxGeometry x="2620" y="806" width="260" height="78" as="geometry" />
        </mxCell>
        <mxCell id="I2DZY9Y-hA4aJZPYzhrL-17" value="NeRF隐式表征及渲染效果分析" style="whiteSpace=wrap;strokeWidth=2;" vertex="1" parent="WIyWlLk6GJQsqaUBKTNV-1">
          <mxGeometry x="3083" y="806" width="260" height="78" as="geometry" />
        </mxCell>
        <mxCell id="I2DZY9Y-hA4aJZPYzhrL-18" value="多用户多视角交互式投影设计" style="whiteSpace=wrap;strokeWidth=2;" vertex="1" parent="WIyWlLk6GJQsqaUBKTNV-1">
          <mxGeometry x="3565" y="806" width="260" height="78" as="geometry" />
        </mxCell>
        <mxCell id="I2DZY9Y-hA4aJZPYzhrL-19" value="点云配准策略与优化" style="whiteSpace=wrap;strokeWidth=2;" vertex="1" parent="WIyWlLk6GJQsqaUBKTNV-1">
          <mxGeometry x="2533" y="934" width="204" height="54" as="geometry" />
        </mxCell>
        <mxCell id="I2DZY9Y-hA4aJZPYzhrL-20" value="配准精度分析" style="whiteSpace=wrap;strokeWidth=2;" vertex="1" parent="WIyWlLk6GJQsqaUBKTNV-1">
          <mxGeometry x="2787" y="934" width="156" height="54" as="geometry" />
        </mxCell>
        <mxCell id="I2DZY9Y-hA4aJZPYzhrL-21" value="多分辨率NeRF方法" style="whiteSpace=wrap;strokeWidth=2;" vertex="1" parent="WIyWlLk6GJQsqaUBKTNV-1">
          <mxGeometry x="2993" y="934" width="193" height="54" as="geometry" />
        </mxCell>
        <mxCell id="I2DZY9Y-hA4aJZPYzhrL-22" value="匹配与渲染效果优化" style="whiteSpace=wrap;strokeWidth=2;" vertex="1" parent="WIyWlLk6GJQsqaUBKTNV-1">
          <mxGeometry x="3236" y="934" width="204" height="54" as="geometry" />
        </mxCell>
        <mxCell id="I2DZY9Y-hA4aJZPYzhrL-23" value="视角追踪与补偿" style="whiteSpace=wrap;strokeWidth=2;" vertex="1" parent="WIyWlLk6GJQsqaUBKTNV-1">
          <mxGeometry x="3490" y="934" width="172" height="54" as="geometry" />
        </mxCell>
        <mxCell id="I2DZY9Y-hA4aJZPYzhrL-24" value="实时内容生成与渲染" style="whiteSpace=wrap;strokeWidth=2;" vertex="1" parent="WIyWlLk6GJQsqaUBKTNV-1">
          <mxGeometry x="3712" y="934" width="204" height="54" as="geometry" />
        </mxCell>
        <mxCell id="I2DZY9Y-hA4aJZPYzhrL-25" value="解决问题" style="whiteSpace=wrap;strokeWidth=2;" vertex="1" parent="WIyWlLk6GJQsqaUBKTNV-1">
          <mxGeometry x="4815" y="574" width="124" height="54" as="geometry" />
        </mxCell>
        <mxCell id="I2DZY9Y-hA4aJZPYzhrL-26" value="下视光学制导景象配准" style="whiteSpace=wrap;strokeWidth=2;" vertex="1" parent="WIyWlLk6GJQsqaUBKTNV-1">
          <mxGeometry x="3990" y="690" width="220" height="54" as="geometry" />
        </mxCell>
        <mxCell id="I2DZY9Y-hA4aJZPYzhrL-27" value="隐式神经表征与渲染问题" style="whiteSpace=wrap;strokeWidth=2;" vertex="1" parent="WIyWlLk6GJQsqaUBKTNV-1">
          <mxGeometry x="4651" y="690" width="236" height="54" as="geometry" />
        </mxCell>
        <mxCell id="I2DZY9Y-hA4aJZPYzhrL-28" value="多用户交互式投影问题" style="whiteSpace=wrap;strokeWidth=2;" vertex="1" parent="WIyWlLk6GJQsqaUBKTNV-1">
          <mxGeometry x="5286" y="690" width="220" height="54" as="geometry" />
        </mxCell>
        <mxCell id="I2DZY9Y-hA4aJZPYzhrL-29" value="几何特征提取与匹配" style="whiteSpace=wrap;strokeWidth=2;" vertex="1" parent="WIyWlLk6GJQsqaUBKTNV-1">
          <mxGeometry x="3875" y="818" width="204" height="54" as="geometry" />
        </mxCell>
        <mxCell id="I2DZY9Y-hA4aJZPYzhrL-30" value="优化配准算法" style="whiteSpace=wrap;strokeWidth=2;" vertex="1" parent="WIyWlLk6GJQsqaUBKTNV-1">
          <mxGeometry x="4129" y="818" width="156" height="54" as="geometry" />
        </mxCell>
        <mxCell id="I2DZY9Y-hA4aJZPYzhrL-31" value="精度与鲁棒性分析" style="whiteSpace=wrap;strokeWidth=2;" vertex="1" parent="WIyWlLk6GJQsqaUBKTNV-1">
          <mxGeometry x="4335" y="818" width="188" height="54" as="geometry" />
        </mxCell>
        <mxCell id="I2DZY9Y-hA4aJZPYzhrL-32" value="高保真NeRF建模" style="whiteSpace=wrap;strokeWidth=2;" vertex="1" parent="WIyWlLk6GJQsqaUBKTNV-1">
          <mxGeometry x="4573" y="818" width="177" height="54" as="geometry" />
        </mxCell>
        <mxCell id="I2DZY9Y-hA4aJZPYzhrL-33" value="快速视图匹配" style="whiteSpace=wrap;strokeWidth=2;" vertex="1" parent="WIyWlLk6GJQsqaUBKTNV-1">
          <mxGeometry x="4799" y="818" width="156" height="54" as="geometry" />
        </mxCell>
        <mxCell id="I2DZY9Y-hA4aJZPYzhrL-34" value="渲染精度优化" style="whiteSpace=wrap;strokeWidth=2;" vertex="1" parent="WIyWlLk6GJQsqaUBKTNV-1">
          <mxGeometry x="5005" y="818" width="156" height="54" as="geometry" />
        </mxCell>
        <mxCell id="I2DZY9Y-hA4aJZPYzhrL-35" value="视角追踪精度" style="whiteSpace=wrap;strokeWidth=2;" vertex="1" parent="WIyWlLk6GJQsqaUBKTNV-1">
          <mxGeometry x="5211" y="818" width="156" height="54" as="geometry" />
        </mxCell>
        <mxCell id="I2DZY9Y-hA4aJZPYzhrL-36" value="图像校正与融合" style="whiteSpace=wrap;strokeWidth=2;" vertex="1" parent="WIyWlLk6GJQsqaUBKTNV-1">
          <mxGeometry x="5417" y="818" width="172" height="54" as="geometry" />
        </mxCell>
        <mxCell id="I2DZY9Y-hA4aJZPYzhrL-37" value="多视点内容生成" style="whiteSpace=wrap;strokeWidth=2;" vertex="1" parent="WIyWlLk6GJQsqaUBKTNV-1">
          <mxGeometry x="5639" y="818" width="172" height="54" as="geometry" />
        </mxCell>
        <mxCell id="I2DZY9Y-hA4aJZPYzhrL-38" value="总结与展望" style="whiteSpace=wrap;strokeWidth=2;" vertex="1" parent="WIyWlLk6GJQsqaUBKTNV-1">
          <mxGeometry x="5770" y="574" width="140" height="54" as="geometry" />
        </mxCell>
        <mxCell id="I2DZY9Y-hA4aJZPYzhrL-39" value="研究成果总结" style="whiteSpace=wrap;strokeWidth=2;" vertex="1" parent="WIyWlLk6GJQsqaUBKTNV-1">
          <mxGeometry x="5556" y="690" width="156" height="54" as="geometry" />
        </mxCell>
        <mxCell id="I2DZY9Y-hA4aJZPYzhrL-40" value="未来研究方向" style="whiteSpace=wrap;strokeWidth=2;" vertex="1" parent="WIyWlLk6GJQsqaUBKTNV-1">
          <mxGeometry x="5762" y="690" width="156" height="54" as="geometry" />
        </mxCell>
        <mxCell id="I2DZY9Y-hA4aJZPYzhrL-41" value="" style="curved=1;startArrow=none;endArrow=block;exitX=0;exitY=0.52;entryX=0.5;entryY=0;rounded=0;" edge="1" parent="WIyWlLk6GJQsqaUBKTNV-1" source="I2DZY9Y-hA4aJZPYzhrL-0" target="I2DZY9Y-hA4aJZPYzhrL-1">
          <mxGeometry relative="1" as="geometry">
            <Array as="points">
              <mxPoint x="1304" y="549" />
            </Array>
          </mxGeometry>
        </mxCell>
        <mxCell id="I2DZY9Y-hA4aJZPYzhrL-42" value="" style="curved=1;startArrow=none;endArrow=block;exitX=0;exitY=0.57;entryX=0.5;entryY=0;rounded=0;" edge="1" parent="WIyWlLk6GJQsqaUBKTNV-1" source="I2DZY9Y-hA4aJZPYzhrL-0" target="I2DZY9Y-hA4aJZPYzhrL-2">
          <mxGeometry relative="1" as="geometry">
            <Array as="points">
              <mxPoint x="3213" y="549" />
            </Array>
          </mxGeometry>
        </mxCell>
        <mxCell id="I2DZY9Y-hA4aJZPYzhrL-43" value="" style="curved=1;startArrow=none;endArrow=block;exitX=0;exitY=0.56;entryX=0.5;entryY=0;rounded=0;" edge="1" parent="WIyWlLk6GJQsqaUBKTNV-1" source="I2DZY9Y-hA4aJZPYzhrL-1" target="I2DZY9Y-hA4aJZPYzhrL-3">
          <mxGeometry relative="1" as="geometry">
            <Array as="points">
              <mxPoint x="379" y="653" />
            </Array>
          </mxGeometry>
        </mxCell>
        <mxCell id="I2DZY9Y-hA4aJZPYzhrL-44" value="" style="curved=1;startArrow=none;endArrow=block;exitX=0.18;exitY=1;entryX=0.5;entryY=0;rounded=0;" edge="1" parent="WIyWlLk6GJQsqaUBKTNV-1" source="I2DZY9Y-hA4aJZPYzhrL-3" target="I2DZY9Y-hA4aJZPYzhrL-4">
          <mxGeometry relative="1" as="geometry">
            <Array as="points">
              <mxPoint x="244" y="781" />
            </Array>
          </mxGeometry>
        </mxCell>
        <mxCell id="I2DZY9Y-hA4aJZPYzhrL-45" value="" style="curved=1;startArrow=none;endArrow=block;exitX=0.74;exitY=1;entryX=0.5;entryY=0;rounded=0;" edge="1" parent="WIyWlLk6GJQsqaUBKTNV-1" source="I2DZY9Y-hA4aJZPYzhrL-3" target="I2DZY9Y-hA4aJZPYzhrL-5">
          <mxGeometry relative="1" as="geometry">
            <Array as="points">
              <mxPoint x="482" y="781" />
            </Array>
          </mxGeometry>
        </mxCell>
        <mxCell id="I2DZY9Y-hA4aJZPYzhrL-46" value="" style="curved=1;startArrow=none;endArrow=block;exitX=1;exitY=0.81;entryX=0.5;entryY=0;rounded=0;" edge="1" parent="WIyWlLk6GJQsqaUBKTNV-1" source="I2DZY9Y-hA4aJZPYzhrL-3" target="I2DZY9Y-hA4aJZPYzhrL-6">
          <mxGeometry relative="1" as="geometry">
            <Array as="points">
              <mxPoint x="720" y="781" />
            </Array>
          </mxGeometry>
        </mxCell>
        <mxCell id="I2DZY9Y-hA4aJZPYzhrL-47" value="" style="curved=1;startArrow=none;endArrow=block;exitX=0.22;exitY=1;entryX=0.5;entryY=0;rounded=0;" edge="1" parent="WIyWlLk6GJQsqaUBKTNV-1" source="I2DZY9Y-hA4aJZPYzhrL-1" target="I2DZY9Y-hA4aJZPYzhrL-7">
          <mxGeometry relative="1" as="geometry">
            <Array as="points">
              <mxPoint x="1237" y="653" />
            </Array>
          </mxGeometry>
        </mxCell>
        <mxCell id="I2DZY9Y-hA4aJZPYzhrL-48" value="" style="curved=1;startArrow=none;endArrow=block;exitX=0;exitY=0.94;entryX=0.5;entryY=0;rounded=0;" edge="1" parent="WIyWlLk6GJQsqaUBKTNV-1" source="I2DZY9Y-hA4aJZPYzhrL-7" target="I2DZY9Y-hA4aJZPYzhrL-8">
          <mxGeometry relative="1" as="geometry">
            <Array as="points">
              <mxPoint x="994" y="781" />
            </Array>
          </mxGeometry>
        </mxCell>
        <mxCell id="I2DZY9Y-hA4aJZPYzhrL-49" value="" style="curved=1;startArrow=none;endArrow=block;exitX=0.66;exitY=1;entryX=0.5;entryY=0;rounded=0;" edge="1" parent="WIyWlLk6GJQsqaUBKTNV-1" source="I2DZY9Y-hA4aJZPYzhrL-7" target="I2DZY9Y-hA4aJZPYzhrL-9">
          <mxGeometry relative="1" as="geometry">
            <Array as="points">
              <mxPoint x="1304" y="781" />
            </Array>
          </mxGeometry>
        </mxCell>
        <mxCell id="I2DZY9Y-hA4aJZPYzhrL-50" value="" style="curved=1;startArrow=none;endArrow=block;exitX=1;exitY=0.78;entryX=0.5;entryY=0;rounded=0;" edge="1" parent="WIyWlLk6GJQsqaUBKTNV-1" source="I2DZY9Y-hA4aJZPYzhrL-7" target="I2DZY9Y-hA4aJZPYzhrL-10">
          <mxGeometry relative="1" as="geometry">
            <Array as="points">
              <mxPoint x="1614" y="781" />
            </Array>
          </mxGeometry>
        </mxCell>
        <mxCell id="I2DZY9Y-hA4aJZPYzhrL-51" value="" style="curved=1;startArrow=none;endArrow=block;exitX=1;exitY=0.58;entryX=0.5;entryY=0;rounded=0;" edge="1" parent="WIyWlLk6GJQsqaUBKTNV-1" source="I2DZY9Y-hA4aJZPYzhrL-1" target="I2DZY9Y-hA4aJZPYzhrL-11">
          <mxGeometry relative="1" as="geometry">
            <Array as="points">
              <mxPoint x="2099" y="653" />
            </Array>
          </mxGeometry>
        </mxCell>
        <mxCell id="I2DZY9Y-hA4aJZPYzhrL-52" value="" style="curved=1;startArrow=none;endArrow=block;exitX=0.15;exitY=1;entryX=0.5;entryY=0;rounded=0;" edge="1" parent="WIyWlLk6GJQsqaUBKTNV-1" source="I2DZY9Y-hA4aJZPYzhrL-11" target="I2DZY9Y-hA4aJZPYzhrL-12">
          <mxGeometry relative="1" as="geometry">
            <Array as="points">
              <mxPoint x="1904" y="781" />
            </Array>
          </mxGeometry>
        </mxCell>
        <mxCell id="I2DZY9Y-hA4aJZPYzhrL-53" value="" style="curved=1;startArrow=none;endArrow=block;exitX=0.65;exitY=1;entryX=0.5;entryY=0;rounded=0;" edge="1" parent="WIyWlLk6GJQsqaUBKTNV-1" source="I2DZY9Y-hA4aJZPYzhrL-11" target="I2DZY9Y-hA4aJZPYzhrL-13">
          <mxGeometry relative="1" as="geometry">
            <Array as="points">
              <mxPoint x="2182" y="781" />
            </Array>
          </mxGeometry>
        </mxCell>
        <mxCell id="I2DZY9Y-hA4aJZPYzhrL-54" value="" style="curved=1;startArrow=none;endArrow=block;exitX=1;exitY=0.89;entryX=0.5;entryY=0;rounded=0;" edge="1" parent="WIyWlLk6GJQsqaUBKTNV-1" source="I2DZY9Y-hA4aJZPYzhrL-11" target="I2DZY9Y-hA4aJZPYzhrL-14">
          <mxGeometry relative="1" as="geometry">
            <Array as="points">
              <mxPoint x="2460" y="781" />
            </Array>
          </mxGeometry>
        </mxCell>
        <mxCell id="I2DZY9Y-hA4aJZPYzhrL-55" value="" style="curved=1;startArrow=none;endArrow=block;exitX=0.5;exitY=1;entryX=0.5;entryY=0;rounded=0;" edge="1" parent="WIyWlLk6GJQsqaUBKTNV-1" source="I2DZY9Y-hA4aJZPYzhrL-2" target="I2DZY9Y-hA4aJZPYzhrL-15">
          <mxGeometry relative="1" as="geometry">
            <Array as="points" />
          </mxGeometry>
        </mxCell>
        <mxCell id="I2DZY9Y-hA4aJZPYzhrL-56" value="" style="curved=1;startArrow=none;endArrow=block;exitX=0;exitY=0.66;entryX=0.5;entryY=0;rounded=0;" edge="1" parent="WIyWlLk6GJQsqaUBKTNV-1" source="I2DZY9Y-hA4aJZPYzhrL-15" target="I2DZY9Y-hA4aJZPYzhrL-16">
          <mxGeometry relative="1" as="geometry">
            <Array as="points">
              <mxPoint x="2750" y="781" />
            </Array>
          </mxGeometry>
        </mxCell>
        <mxCell id="I2DZY9Y-hA4aJZPYzhrL-57" value="" style="curved=1;startArrow=none;endArrow=block;exitX=0.5;exitY=1;entryX=0.5;entryY=0;rounded=0;" edge="1" parent="WIyWlLk6GJQsqaUBKTNV-1" source="I2DZY9Y-hA4aJZPYzhrL-15" target="I2DZY9Y-hA4aJZPYzhrL-17">
          <mxGeometry relative="1" as="geometry">
            <Array as="points" />
          </mxGeometry>
        </mxCell>
        <mxCell id="I2DZY9Y-hA4aJZPYzhrL-58" value="" style="curved=1;startArrow=none;endArrow=block;exitX=1;exitY=0.65;entryX=0.5;entryY=0;rounded=0;" edge="1" parent="WIyWlLk6GJQsqaUBKTNV-1" source="I2DZY9Y-hA4aJZPYzhrL-15" target="I2DZY9Y-hA4aJZPYzhrL-18">
          <mxGeometry relative="1" as="geometry">
            <Array as="points">
              <mxPoint x="3695" y="781" />
            </Array>
          </mxGeometry>
        </mxCell>
        <mxCell id="I2DZY9Y-hA4aJZPYzhrL-59" value="" style="curved=1;startArrow=none;endArrow=block;exitX=0.23;exitY=1;entryX=0.5;entryY=0;rounded=0;" edge="1" parent="WIyWlLk6GJQsqaUBKTNV-1" source="I2DZY9Y-hA4aJZPYzhrL-16" target="I2DZY9Y-hA4aJZPYzhrL-19">
          <mxGeometry relative="1" as="geometry">
            <Array as="points">
              <mxPoint x="2635" y="909" />
            </Array>
          </mxGeometry>
        </mxCell>
        <mxCell id="I2DZY9Y-hA4aJZPYzhrL-60" value="" style="curved=1;startArrow=none;endArrow=block;exitX=0.77;exitY=1;entryX=0.5;entryY=0;rounded=0;" edge="1" parent="WIyWlLk6GJQsqaUBKTNV-1" source="I2DZY9Y-hA4aJZPYzhrL-16" target="I2DZY9Y-hA4aJZPYzhrL-20">
          <mxGeometry relative="1" as="geometry">
            <Array as="points">
              <mxPoint x="2865" y="909" />
            </Array>
          </mxGeometry>
        </mxCell>
        <mxCell id="I2DZY9Y-hA4aJZPYzhrL-61" value="" style="curved=1;startArrow=none;endArrow=block;exitX=0.21;exitY=1;entryX=0.5;entryY=0;rounded=0;" edge="1" parent="WIyWlLk6GJQsqaUBKTNV-1" source="I2DZY9Y-hA4aJZPYzhrL-17" target="I2DZY9Y-hA4aJZPYzhrL-21">
          <mxGeometry relative="1" as="geometry">
            <Array as="points">
              <mxPoint x="3089" y="909" />
            </Array>
          </mxGeometry>
        </mxCell>
        <mxCell id="I2DZY9Y-hA4aJZPYzhrL-62" value="" style="curved=1;startArrow=none;endArrow=block;exitX=0.79;exitY=1;entryX=0.5;entryY=0;rounded=0;" edge="1" parent="WIyWlLk6GJQsqaUBKTNV-1" source="I2DZY9Y-hA4aJZPYzhrL-17" target="I2DZY9Y-hA4aJZPYzhrL-22">
          <mxGeometry relative="1" as="geometry">
            <Array as="points">
              <mxPoint x="3338" y="909" />
            </Array>
          </mxGeometry>
        </mxCell>
        <mxCell id="I2DZY9Y-hA4aJZPYzhrL-63" value="" style="curved=1;startArrow=none;endArrow=block;exitX=0.22;exitY=1;entryX=0.5;entryY=0;rounded=0;" edge="1" parent="WIyWlLk6GJQsqaUBKTNV-1" source="I2DZY9Y-hA4aJZPYzhrL-18" target="I2DZY9Y-hA4aJZPYzhrL-23">
          <mxGeometry relative="1" as="geometry">
            <Array as="points">
              <mxPoint x="3576" y="909" />
            </Array>
          </mxGeometry>
        </mxCell>
        <mxCell id="I2DZY9Y-hA4aJZPYzhrL-64" value="" style="curved=1;startArrow=none;endArrow=block;exitX=0.78;exitY=1;entryX=0.5;entryY=0;rounded=0;" edge="1" parent="WIyWlLk6GJQsqaUBKTNV-1" source="I2DZY9Y-hA4aJZPYzhrL-18" target="I2DZY9Y-hA4aJZPYzhrL-24">
          <mxGeometry relative="1" as="geometry">
            <Array as="points">
              <mxPoint x="3814" y="909" />
            </Array>
          </mxGeometry>
        </mxCell>
        <mxCell id="I2DZY9Y-hA4aJZPYzhrL-65" value="" style="curved=1;startArrow=none;endArrow=block;exitX=1;exitY=0.57;entryX=0.5;entryY=0;rounded=0;" edge="1" parent="WIyWlLk6GJQsqaUBKTNV-1" source="I2DZY9Y-hA4aJZPYzhrL-0" target="I2DZY9Y-hA4aJZPYzhrL-25">
          <mxGeometry relative="1" as="geometry">
            <Array as="points">
              <mxPoint x="4877" y="549" />
            </Array>
          </mxGeometry>
        </mxCell>
        <mxCell id="I2DZY9Y-hA4aJZPYzhrL-66" value="" style="curved=1;startArrow=none;endArrow=block;exitX=0;exitY=0.58;entryX=0.5;entryY=0;rounded=0;" edge="1" parent="WIyWlLk6GJQsqaUBKTNV-1" source="I2DZY9Y-hA4aJZPYzhrL-25" target="I2DZY9Y-hA4aJZPYzhrL-26">
          <mxGeometry relative="1" as="geometry">
            <Array as="points">
              <mxPoint x="4100" y="653" />
            </Array>
          </mxGeometry>
        </mxCell>
        <mxCell id="I2DZY9Y-hA4aJZPYzhrL-67" value="" style="curved=1;startArrow=none;endArrow=block;exitX=0.05;exitY=1;entryX=0.5;entryY=0;rounded=0;" edge="1" parent="WIyWlLk6GJQsqaUBKTNV-1" source="I2DZY9Y-hA4aJZPYzhrL-25" target="I2DZY9Y-hA4aJZPYzhrL-27">
          <mxGeometry relative="1" as="geometry">
            <Array as="points">
              <mxPoint x="4769" y="653" />
            </Array>
          </mxGeometry>
        </mxCell>
        <mxCell id="I2DZY9Y-hA4aJZPYzhrL-68" value="" style="curved=1;startArrow=none;endArrow=block;exitX=1;exitY=0.62;entryX=0.5;entryY=0;rounded=0;" edge="1" parent="WIyWlLk6GJQsqaUBKTNV-1" source="I2DZY9Y-hA4aJZPYzhrL-25" target="I2DZY9Y-hA4aJZPYzhrL-28">
          <mxGeometry relative="1" as="geometry">
            <Array as="points">
              <mxPoint x="5396" y="653" />
            </Array>
          </mxGeometry>
        </mxCell>
        <mxCell id="I2DZY9Y-hA4aJZPYzhrL-69" value="" style="curved=1;startArrow=none;endArrow=block;exitX=0.26;exitY=1;entryX=0.5;entryY=0;rounded=0;" edge="1" parent="WIyWlLk6GJQsqaUBKTNV-1" source="I2DZY9Y-hA4aJZPYzhrL-26" target="I2DZY9Y-hA4aJZPYzhrL-29">
          <mxGeometry relative="1" as="geometry">
            <Array as="points">
              <mxPoint x="3977" y="781" />
            </Array>
          </mxGeometry>
        </mxCell>
        <mxCell id="I2DZY9Y-hA4aJZPYzhrL-70" value="" style="curved=1;startArrow=none;endArrow=block;exitX=0.7;exitY=1;entryX=0.5;entryY=0;rounded=0;" edge="1" parent="WIyWlLk6GJQsqaUBKTNV-1" source="I2DZY9Y-hA4aJZPYzhrL-26" target="I2DZY9Y-hA4aJZPYzhrL-30">
          <mxGeometry relative="1" as="geometry">
            <Array as="points">
              <mxPoint x="4207" y="781" />
            </Array>
          </mxGeometry>
        </mxCell>
        <mxCell id="I2DZY9Y-hA4aJZPYzhrL-71" value="" style="curved=1;startArrow=none;endArrow=block;exitX=1;exitY=0.9;entryX=0.5;entryY=0;rounded=0;" edge="1" parent="WIyWlLk6GJQsqaUBKTNV-1" source="I2DZY9Y-hA4aJZPYzhrL-26" target="I2DZY9Y-hA4aJZPYzhrL-31">
          <mxGeometry relative="1" as="geometry">
            <Array as="points">
              <mxPoint x="4429" y="781" />
            </Array>
          </mxGeometry>
        </mxCell>
        <mxCell id="I2DZY9Y-hA4aJZPYzhrL-72" value="" style="curved=1;startArrow=none;endArrow=block;exitX=0.31;exitY=1;entryX=0.5;entryY=0;rounded=0;" edge="1" parent="WIyWlLk6GJQsqaUBKTNV-1" source="I2DZY9Y-hA4aJZPYzhrL-27" target="I2DZY9Y-hA4aJZPYzhrL-32">
          <mxGeometry relative="1" as="geometry">
            <Array as="points">
              <mxPoint x="4661" y="781" />
            </Array>
          </mxGeometry>
        </mxCell>
        <mxCell id="I2DZY9Y-hA4aJZPYzhrL-73" value="" style="curved=1;startArrow=none;endArrow=block;exitX=0.69;exitY=1;entryX=0.5;entryY=0;rounded=0;" edge="1" parent="WIyWlLk6GJQsqaUBKTNV-1" source="I2DZY9Y-hA4aJZPYzhrL-27" target="I2DZY9Y-hA4aJZPYzhrL-33">
          <mxGeometry relative="1" as="geometry">
            <Array as="points">
              <mxPoint x="4877" y="781" />
            </Array>
          </mxGeometry>
        </mxCell>
        <mxCell id="I2DZY9Y-hA4aJZPYzhrL-74" value="" style="curved=1;startArrow=none;endArrow=block;exitX=1;exitY=0.95;entryX=0.5;entryY=0;rounded=0;" edge="1" parent="WIyWlLk6GJQsqaUBKTNV-1" source="I2DZY9Y-hA4aJZPYzhrL-27" target="I2DZY9Y-hA4aJZPYzhrL-34">
          <mxGeometry relative="1" as="geometry">
            <Array as="points">
              <mxPoint x="5083" y="781" />
            </Array>
          </mxGeometry>
        </mxCell>
        <mxCell id="I2DZY9Y-hA4aJZPYzhrL-75" value="" style="curved=1;startArrow=none;endArrow=block;exitX=0.3;exitY=1;entryX=0.5;entryY=0;rounded=0;" edge="1" parent="WIyWlLk6GJQsqaUBKTNV-1" source="I2DZY9Y-hA4aJZPYzhrL-28" target="I2DZY9Y-hA4aJZPYzhrL-35">
          <mxGeometry relative="1" as="geometry">
            <Array as="points">
              <mxPoint x="5289" y="781" />
            </Array>
          </mxGeometry>
        </mxCell>
        <mxCell id="I2DZY9Y-hA4aJZPYzhrL-76" value="" style="curved=1;startArrow=none;endArrow=block;exitX=0.71;exitY=1;entryX=0.5;entryY=0;rounded=0;" edge="1" parent="WIyWlLk6GJQsqaUBKTNV-1" source="I2DZY9Y-hA4aJZPYzhrL-28" target="I2DZY9Y-hA4aJZPYzhrL-36">
          <mxGeometry relative="1" as="geometry">
            <Array as="points">
              <mxPoint x="5503" y="781" />
            </Array>
          </mxGeometry>
        </mxCell>
        <mxCell id="I2DZY9Y-hA4aJZPYzhrL-77" value="" style="curved=1;startArrow=none;endArrow=block;exitX=1;exitY=0.9;entryX=0.5;entryY=0;rounded=0;" edge="1" parent="WIyWlLk6GJQsqaUBKTNV-1" source="I2DZY9Y-hA4aJZPYzhrL-28" target="I2DZY9Y-hA4aJZPYzhrL-37">
          <mxGeometry relative="1" as="geometry">
            <Array as="points">
              <mxPoint x="5725" y="781" />
            </Array>
          </mxGeometry>
        </mxCell>
        <mxCell id="I2DZY9Y-hA4aJZPYzhrL-78" value="" style="curved=1;startArrow=none;endArrow=block;exitX=1;exitY=0.53;entryX=0.5;entryY=0;rounded=0;" edge="1" parent="WIyWlLk6GJQsqaUBKTNV-1" source="I2DZY9Y-hA4aJZPYzhrL-0" target="I2DZY9Y-hA4aJZPYzhrL-38">
          <mxGeometry relative="1" as="geometry">
            <Array as="points">
              <mxPoint x="5840" y="549" />
            </Array>
          </mxGeometry>
        </mxCell>
        <mxCell id="I2DZY9Y-hA4aJZPYzhrL-79" value="" style="curved=1;startArrow=none;endArrow=block;exitX=0;exitY=0.83;entryX=0.5;entryY=0;rounded=0;" edge="1" parent="WIyWlLk6GJQsqaUBKTNV-1" source="I2DZY9Y-hA4aJZPYzhrL-38" target="I2DZY9Y-hA4aJZPYzhrL-39">
          <mxGeometry relative="1" as="geometry">
            <Array as="points">
              <mxPoint x="5634" y="653" />
            </Array>
          </mxGeometry>
        </mxCell>
        <mxCell id="I2DZY9Y-hA4aJZPYzhrL-80" value="" style="curved=1;startArrow=none;endArrow=block;exitX=0.5;exitY=1;entryX=0.5;entryY=0;rounded=0;" edge="1" parent="WIyWlLk6GJQsqaUBKTNV-1" source="I2DZY9Y-hA4aJZPYzhrL-38" target="I2DZY9Y-hA4aJZPYzhrL-40">
          <mxGeometry relative="1" as="geometry">
            <Array as="points" />
          </mxGeometry>
        </mxCell>
      </root>
    </mxGraphModel>
  </diagram>
</mxfile>
